# xmcd CD database file
#
# Track frame offsets:
#	150
#	15473
#	33366
#	47960
#	61326
#	73386
#	88489
#	103705
#	119399
#	131738
#	142891
#	159571
#
# Disc length: 2369 seconds
#
# Revision: 0
# Processed by: cddbd v1.5.2PL0 Copyright (c) Steve Scherf et al.
# Submitted via: CDex 1.70beta2
#
DISCID=ae093f0c
DTITLE=Talia Wittmann - Reckless Side Of Me
DYEAR=2008
DGENRE=Country
TTITLE0=The Reckless Side Of Me
TTITLE1=Nothin' But The Wind
TTITLE2=Ladylike
TTITLE3=Her
TTITLE4=Girls Get Loud
TTITLE5=I Can Say That Now
TTITLE6=Take Me Away
TTITLE7=Ain't No Man
TTITLE8=Talk Dirty To Me
TTITLE9=Too Late
TTITLE10=Nothing To Me
TTITLE11=Lay A Little Love On Me
EXTD=YEAR: 2008
EXTT0=
EXTT1=
EXTT2=
EXTT3=
EXTT4=
EXTT5=
EXTT6=
EXTT7=
EXTT8=
EXTT9=
EXTT10=
EXTT11=
PLAYORDER=
